<?xml version="1.0" encoding="iso-8859-1"?>
<!-- Uploaded to: SVG Repo, www.svgrepo.com, Generator: SVG Repo Mixer Tools -->
<svg fill="#000000" height="800px" width="800px" version="1.1" id="Layer_1" xmlns="http://www.w3.org/2000/svg" xmlns:xlink="http://www.w3.org/1999/xlink" 
	 viewBox="0 0 511.999 511.999" xml:space="preserve">
<g>
	<g>
		<path d="M353.167,63.175c-13.228-13.427-30.826-20.822-49.551-20.822c-17.827,0-34.632,6.702-47.617,18.93
			c-12.988-12.228-29.793-18.93-47.617-18.93c-18.726,0-36.324,7.395-49.552,20.822c-13.198,13.398-20.466,31.198-20.466,50.123
			c0,18.928,7.268,36.729,20.464,50.121l83.076,84.389c3.705,3.76,8.843,5.915,14.096,5.915c5.252,0,10.388-2.156,14.098-5.918
			l47.208-47.956c3.036-3.085,2.997-8.046-0.087-11.082c-3.085-3.036-8.046-3-11.082,0.087l-47.204,47.952
			c-1.585,1.604-4.288,1.601-5.863,0.003l-83.075-84.389c-10.29-10.442-15.957-24.336-15.957-39.121
			c0-14.782,5.667-28.676,15.958-39.122c10.259-10.413,23.892-16.148,38.386-16.148c14.493,0,28.126,5.734,38.385,16.148
			c4.93,7.103,13.427,7.02,18.463,0c10.259-10.413,23.891-16.148,38.385-16.148c14.495,0,28.127,5.734,38.385,16.148
			c10.293,10.447,15.961,24.341,15.961,39.122c0,14.784-5.669,28.678-15.963,39.124L325.68,169
			c-3.036,3.085-2.997,8.047,0.087,11.082c3.082,3.035,8.045,2.999,11.083-0.087l16.316-16.574
			c13.201-13.395,20.471-31.194,20.471-50.124C373.637,94.375,366.367,76.574,353.167,63.175z"/>
	</g>
</g>
<g>
	<g>
		<path d="M498.821,331.374h-32.154v-2.232c0-4.329-3.508-7.837-7.837-7.837c-4.329,0-7.837,3.508-7.837,7.837v10.069
			c0,4.329,3.508,7.837,7.837,7.837h37.496v8.24c0,2.287-0.128,4.545-0.364,6.769h-16.355c-4.329,0-7.837,3.508-7.837,7.837
			c0,4.329,3.508,7.837,7.837,7.837h12.639c-8.951,23.78-31.678,40.723-58.249,40.723h-51.035
			c-37.511,0-68.029-30.924-68.029-68.934v-56.102c0-38.01,30.518-68.934,68.029-68.934s68.029,30.924,68.029,68.934v8.561
			c0,4.329,3.508,7.837,7.837,7.837c4.329,0,7.837-3.508,7.837-7.837v-8.561c0-46.652-37.549-84.607-83.703-84.607
			c-41.49,0-76.008,30.677-82.565,70.767h-11.028c-15.565,0-28.227,12.771-28.227,28.467c0,15.698,12.662,28.469,28.227,28.469
			h9.889v13.005c0,41.945,30.361,76.842,70.031,83.46v28.83c0,4.329,3.508,7.837,7.837,7.837c4.328,0,7.837-3.508,7.837-7.837
			v-27.682h24.278v27.682c0,4.329,3.508,7.837,7.837,7.837c4.329,0,7.837-3.508,7.837-7.837v-27.682h9.081
			c43.01,0,78.002-35.368,78.002-78.839v-10.729C512,337.288,506.088,331.374,498.821,331.374z M299.26,300.208h-7.603
			c-4.329,0-7.837,3.508-7.837,7.837c0,4.329,3.508,7.837,7.837,7.837h7.603v4.959h-9.889c-6.921,0-12.553-5.74-12.553-12.796
			c0-7.054,5.632-12.794,12.553-12.794h9.889V300.208z"/>
	</g>
</g>
<g>
	<g>
		<path d="M428.192,336.41h-32.3c-4.329,0-7.837,3.508-7.837,7.837c0,4.329,3.508,7.837,7.837,7.837h23.438
			c-3.4,12.707-14.864,22.08-28.442,22.08c-16.25,0-29.47-13.421-29.47-29.917c0-4.329-3.508-7.837-7.837-7.837
			s-7.837,3.508-7.837,7.837c0,25.139,20.251,45.59,45.144,45.59c24.891,0,45.141-20.451,45.141-45.59
			C436.029,339.917,432.52,336.41,428.192,336.41z"/>
	</g>
</g>
<g>
	<g>
		<path d="M353.783,273.771c-4.329,0-7.837,3.508-7.837,7.837v5.905c0,4.329,3.509,7.837,7.837,7.837
			c4.329,0,7.837-3.508,7.837-7.837v-5.905C361.619,277.279,358.112,273.771,353.783,273.771z"/>
	</g>
</g>
<g>
	<g>
		<path d="M158.419,336.41c-4.329,0-7.837,3.508-7.837,7.837c0,16.496-13.22,29.917-29.47,29.917
			c-13.578,0-25.042-9.373-28.442-22.08h23.439c4.329,0,7.837-3.508,7.837-7.837c0-4.329-3.508-7.837-7.837-7.837H83.808
			c-4.329,0-7.837,3.508-7.837,7.837c0,25.139,20.25,45.59,45.141,45.59c24.893,0,45.144-20.451,45.144-45.59
			C166.256,339.917,162.748,336.41,158.419,336.41z"/>
	</g>
</g>
<g>
	<g>
		<path d="M158.217,273.771c-4.329,0-7.837,3.508-7.837,7.837v5.905c0,4.329,3.508,7.837,7.837,7.837
			c4.329,0,7.837-3.508,7.837-7.837v-5.905C166.054,277.279,162.546,273.771,158.217,273.771z"/>
	</g>
</g>
<g>
	<g>
		<path d="M222.629,279.578h-11.028c-6.556-40.089-41.075-70.767-82.566-70.767c-16.728,0.001-32.885,4.995-46.727,14.44
			c-3.576,2.44-4.495,7.316-2.055,10.891c2.44,3.575,7.315,4.496,10.89,2.055c11.227-7.662,24.33-11.712,37.893-11.713
			c37.511,0,68.029,30.924,68.029,68.934v56.102c0,38.01-30.518,68.934-68.029,68.934H78.002c-26.571,0-49.298-16.943-58.249-40.723
			h12.639c4.329,0,7.837-3.508,7.837-7.837c0-4.329-3.508-7.837-7.837-7.837H16.037c-0.236-2.225-0.364-4.482-0.364-6.769v-8.24
			h37.497c4.329,0,7.837-3.508,7.837-7.837v-45.795c0-14.938,4.658-29.161,13.472-41.13c2.566-3.486,1.821-8.392-1.664-10.957
			c-3.488-2.567-8.392-1.822-10.957,1.663c-10.81,14.683-16.524,32.118-16.524,50.425v37.956H13.179
			C5.912,331.374,0,337.288,0,344.559v10.729c0,43.471,34.992,78.839,78.002,78.839h9.081v27.682c0,4.329,3.508,7.837,7.837,7.837
			c4.329,0,7.837-3.508,7.837-7.837v-27.682h24.278v27.682c0,4.329,3.508,7.837,7.837,7.837c4.329,0,7.837-3.508,7.837-7.837v-28.83
			c39.671-6.618,70.03-41.514,70.03-83.46v-13.005h9.889c15.564,0,28.227-12.772,28.227-28.469
			C250.855,292.347,238.193,279.578,222.629,279.578z M222.629,320.841h-9.889v-4.959h7.603c4.329,0,7.837-3.508,7.837-7.837
			c0-4.329-3.508-7.837-7.837-7.837h-7.603v-4.957h9.889c6.921,0,12.553,5.74,12.553,12.794
			C235.181,315.1,229.549,320.841,222.629,320.841z"/>
	</g>
</g>
</svg>