<?xml version="1.0" encoding="iso-8859-1"?>
<!-- Uploaded to: SVG Repo, www.svgrepo.com, Generator: SVG Repo Mixer Tools -->
<svg fill="#000000" height="800px" width="800px" version="1.1" id="Layer_1" xmlns="http://www.w3.org/2000/svg" xmlns:xlink="http://www.w3.org/1999/xlink" 
	 viewBox="0 0 512 512" xml:space="preserve">
<g>
	<g>
		<path d="M395.13,111.093c-58.774,0-107.546,43.612-115.672,100.174h-46.917c-8.126-56.562-56.898-100.174-115.672-100.174
			C52.428,111.093,0,163.521,0,227.962c0,5.759,0,223.367,0,233.739c0,9.22,7.475,16.696,16.696,16.696h66.783
			c5.643,0,11.212-0.324,16.696-0.933v17.628c0,9.22,7.475,16.696,16.696,16.696s16.696-7.475,16.696-16.696v-25.291
			c58.301-20.674,100.174-76.367,100.174-141.666v-83.478h44.522v83.478c0,65.299,41.873,120.992,100.174,141.666v25.291
			c0,9.22,7.475,16.696,16.696,16.696c9.22,0,16.696-7.475,16.696-16.696v-17.628c5.484,0.609,11.052,0.933,16.696,0.933h66.783
			c9.22,0,16.696-7.475,16.696-16.696c0-2.874,0-226.638,0-233.739C512,163.521,459.572,111.093,395.13,111.093z M33.391,443.817
			v-33.882c38.057-7.756,66.783-41.484,66.783-81.799c0-9.22-7.475-16.696-16.696-16.696s-16.696,7.475-16.696,16.696
			c0,21.766-13.959,40.323-33.391,47.215v-47.215c0-27.618,22.469-50.087,50.087-50.087c27.618,0,50.087,22.469,50.087,50.087
			C133.565,386.911,89.953,435.691,33.391,443.817z M200.348,328.136c0,52.91-35.344,97.711-83.66,112.056
			c30.827-27.538,50.268-67.566,50.268-112.056c0-46.03-37.448-83.478-83.478-83.478c-18.778,0-36.125,6.236-50.087,16.741v-33.437
			c0-46.03,37.448-83.478,83.478-83.478s83.478,37.448,83.478,83.478V328.136z M478.609,375.352
			c-19.433-6.892-33.391-25.45-33.391-47.215c0-9.22-7.475-16.696-16.696-16.696s-16.696,7.475-16.696,16.696
			c0,40.314,28.725,74.042,66.783,81.799v33.882c-56.562-8.126-100.174-56.907-100.174-115.681
			c0-27.618,22.469-50.087,50.087-50.087s50.087,22.469,50.087,50.087V375.352z M478.609,261.399
			c-13.962-10.505-31.309-16.741-50.087-16.741c-46.03,0-83.478,37.448-83.478,83.478c0,44.489,19.442,84.518,50.268,112.056
			c-48.316-14.345-83.66-59.146-83.66-112.056V227.962c0-46.03,37.448-83.478,83.478-83.478s83.478,37.448,83.478,83.478V261.399z"
			/>
	</g>
</g>
<g>
	<g>
		<circle cx="361.739" cy="211.267" r="16.696"/>
	</g>
</g>
<g>
	<g>
		<circle cx="150.261" cy="211.267" r="16.696"/>
	</g>
</g>
<g>
	<g>
		<path d="M292.115,0.211c-15.724,0-27.596,6.69-36.113,15.388c-8.519-8.697-20.391-15.388-36.115-15.388
			c-29.611,0-52.807,24.365-52.807,55.466c-0.001,31.593,23.514,50.931,56.062,77.695c6.987,5.746,14.212,11.687,21.994,18.356
			c3.127,2.679,6.995,4.019,10.866,4.019c3.87,0,7.739-1.34,10.866-4.019c7.781-6.669,15.006-12.611,21.994-18.356
			c32.547-26.764,56.062-46.102,56.062-77.695C344.922,24.576,321.726,0.211,292.115,0.211z M267.651,107.581
			c-3.65,3.002-7.562,6.22-11.65,9.623c-4.088-3.405-8.001-6.621-11.65-9.623c-29.636-24.37-43.881-36.756-43.881-51.903
			c0-10.97,6.67-22.075,19.417-22.075c13.975,0,19.604,17.366,20.051,18.818c1.944,7.309,8.492,12.402,16.062,12.402
			c7.57,0,14.118-5.091,16.062-12.402c0.446-1.454,6.076-18.818,20.052-18.818c12.747,0,19.416,11.106,19.416,22.075
			C311.531,70.825,297.286,83.211,267.651,107.581z"/>
	</g>
</g>
</svg>