<?xml version="1.0" encoding="iso-8859-1"?>
<!-- Uploaded to: SVG Repo, www.svgrepo.com, Generator: SVG Repo Mixer Tools -->
<svg height="800px" width="800px" version="1.1" id="Layer_1" xmlns="http://www.w3.org/2000/svg" xmlns:xlink="http://www.w3.org/1999/xlink" 
	 viewBox="0 0 511.999 511.999" xml:space="preserve">
<path style="fill:#FF8163;" d="M255.999,245.885c-3.193,0-6.258-1.289-8.515-3.58l-83.071-84.386
	c-11.743-11.916-18.213-27.766-18.213-44.622c0-16.853,6.469-32.702,18.213-44.622s27.362-18.484,43.969-18.484
	c16.609,0,32.223,6.564,43.968,18.484l3.649,3.704l3.649-3.704c11.744-11.92,27.356-18.484,43.968-18.484
	c16.609,0,32.225,6.564,43.968,18.484S365.8,96.444,365.8,113.297c0,16.856-6.471,32.706-18.216,44.622l-83.073,84.386
	C262.255,244.595,259.194,245.885,255.999,245.885z"/>
<path style="fill:#FFC25E;" d="M222.629,287.414h-17.98c0.153,1.983,0.254,3.981,0.254,6.004v35.259h17.726
	c11.261,0,20.39-9.237,20.39-20.633C243.018,296.65,233.89,287.414,222.629,287.414z"/>
<path style="fill:#9EF0F4;" d="M78.002,426.29c-38.688,0-70.165-31.851-70.165-71.002v-10.729c0-2.954,2.392-5.348,5.343-5.348
	h39.99v-45.794c0-42.331,34.032-76.771,75.867-76.771c41.832,0,75.866,34.44,75.866,76.771v56.102
	c0,42.332-34.033,76.771-75.866,76.771L78.002,426.29L78.002,426.29z"/>
<g style="opacity:0.1;">
	<path d="M40.751,355.288v-10.729c0-2.954,2.392-5.348,5.343-5.348H13.179c-2.951,0-5.343,2.394-5.343,5.348v10.729
		c0,39.151,31.477,71.002,70.165,71.002h32.914C72.228,426.29,40.751,394.438,40.751,355.288z"/>
</g>
<path style="fill:#FFBAC5;" d="M433.998,426.29c38.688,0,70.165-31.851,70.165-71.002v-10.729c0-2.954-2.392-5.348-5.343-5.348
	h-39.99v-45.794c0-42.331-34.032-76.771-75.866-76.771c-41.832,0-75.866,34.44-75.866,76.771v56.102
	c0,42.332,34.033,76.771,75.866,76.771L433.998,426.29L433.998,426.29z"/>
<path style="fill:#FFC25E;" d="M307.097,293.417c0-2.022,0.101-4.021,0.254-6.004h-17.98c-11.261,0-20.39,9.237-20.39,20.63
	c0,11.396,9.128,20.633,20.39,20.633h17.726V293.417z"/>
<g style="opacity:0.1;">
	<path d="M196.282,147.436c-11.743-11.916-18.213-27.766-18.213-44.622c0-16.853,6.469-32.702,18.213-44.622
		c2.945-2.988,6.133-5.639,9.518-7.936c-15.639,0.644-30.255,7.12-41.387,18.421C152.67,80.596,146.2,96.445,146.2,113.298
		c0,16.856,6.469,32.706,18.213,44.622l83.071,84.386c2.257,2.289,5.323,3.58,8.515,3.58c3.195,0,6.256-1.289,8.514-3.58
		l12.582-12.779L196.282,147.436z"/>
</g>
<path style="opacity:0.1;enable-background:new    ;" d="M338.966,349.519v-56.102c0-36.8,25.725-67.623,59.931-75.053
	c-5.141-1.116-10.47-1.718-15.935-1.718c-41.833,0-75.866,34.44-75.866,76.771v56.102c0,42.332,34.033,76.771,75.866,76.771h31.869
	C373,426.29,338.966,391.851,338.966,349.519z"/>
<path d="M317.305,199.849c3.036-3.085,2.997-8.046-0.087-11.082c-3.085-3.036-8.046-3-11.082,0.087l-47.204,47.952
	c-1.585,1.604-4.288,1.601-5.863,0.003l-83.075-84.389c-10.29-10.442-15.957-24.336-15.957-39.121
	c0-14.782,5.668-28.676,15.958-39.122c10.259-10.413,23.892-16.148,38.386-16.148c14.493,0,28.126,5.734,38.385,16.148
	c5.962,7.265,12.501,7.265,18.463,0c10.259-10.413,23.891-16.148,38.385-16.148s28.127,5.734,38.385,16.148
	c10.293,10.447,15.961,24.341,15.961,39.122c0,14.784-5.669,28.678-15.963,39.124L325.68,169c-3.036,3.085-2.997,8.047,0.087,11.082
	c3.082,3.035,8.045,2.999,11.083-0.087l16.316-16.574c13.201-13.395,20.471-31.194,20.471-50.124
	c0-18.923-7.269-36.724-20.47-50.123c-13.228-13.427-30.826-20.822-49.551-20.822c-17.827,0-34.632,6.702-47.617,18.93
	c-12.988-12.228-29.793-18.93-47.617-18.93c-18.726,0-36.324,7.395-49.552,20.822c-13.198,13.398-20.466,31.198-20.466,50.123
	c0,18.928,7.268,36.729,20.464,50.121l83.076,84.389c3.705,3.76,8.843,5.915,14.096,5.915c5.252,0,10.388-2.156,14.098-5.918
	L317.305,199.849z"/>
<path d="M498.821,331.374h-32.154v-2.232c0-4.329-3.508-7.837-7.837-7.837c-4.329,0-7.837,3.508-7.837,7.837v10.069
	c0,4.329,3.508,7.837,7.837,7.837h37.496v8.24c0,2.287-0.127,4.545-0.364,6.769h-16.355c-4.329,0-7.837,3.508-7.837,7.837
	s3.508,7.837,7.837,7.837h12.639c-8.951,23.78-31.678,40.723-58.249,40.723h-51.035c-37.511,0-68.029-30.924-68.029-68.934v-56.102
	c0-38.01,30.518-68.934,68.029-68.934s68.029,30.924,68.029,68.934v8.561c0,4.329,3.508,7.837,7.837,7.837s7.837-3.508,7.837-7.837
	v-8.561c0-46.652-37.549-84.607-83.703-84.607c-41.49,0-76.008,30.677-82.565,70.767h-11.028c-15.565,0-28.227,12.771-28.227,28.467
	c0,15.698,12.662,28.469,28.227,28.469h9.889v13.005c0,41.945,30.361,76.842,70.031,83.46v28.83c0,4.329,3.508,7.837,7.837,7.837
	c4.328,0,7.837-3.508,7.837-7.837v-27.682h24.278v27.682c0,4.329,3.508,7.837,7.837,7.837s7.837-3.508,7.837-7.837v-27.682h9.081
	c43.01,0,78.002-35.368,78.002-78.839v-10.729C512,337.288,506.088,331.374,498.821,331.374z M299.26,300.208h-7.603
	c-4.329,0-7.837,3.508-7.837,7.837c0,4.329,3.508,7.837,7.837,7.837h7.603v4.959h-9.889c-6.921,0-12.553-5.74-12.553-12.796
	c0-7.054,5.632-12.794,12.553-12.794h9.889V300.208z"/>
<path d="M390.888,389.836c24.891,0,45.141-20.451,45.141-45.59c0-4.329-3.509-7.837-7.837-7.837h-32.3
	c-4.329,0-7.837,3.508-7.837,7.837s3.508,7.837,7.837,7.837h23.438c-3.4,12.707-14.864,22.08-28.442,22.08
	c-16.25,0-29.47-13.421-29.47-29.917c0-4.329-3.508-7.837-7.837-7.837c-4.329,0-7.837,3.508-7.837,7.837
	C345.744,369.386,365.995,389.836,390.888,389.836z"/>
<path d="M353.783,295.349c4.329,0,7.837-3.508,7.837-7.837v-5.905c0-4.329-3.508-7.837-7.837-7.837
	c-4.329,0-7.837,3.508-7.837,7.837v5.905C345.946,291.842,349.455,295.349,353.783,295.349z"/>
<path d="M123.946,344.246c0-4.329-3.508-7.837-7.837-7.837H83.808c-4.329,0-7.837,3.508-7.837,7.837
	c0,25.139,20.25,45.59,45.141,45.59c24.893,0,45.144-20.451,45.144-45.59c0-4.329-3.508-7.837-7.837-7.837
	c-4.329,0-7.837,3.508-7.837,7.837c0,16.496-13.22,29.917-29.47,29.917c-13.578,0-25.042-9.373-28.442-22.08h23.439
	C120.438,352.083,123.946,348.575,123.946,344.246z"/>
<path d="M158.217,295.349c4.329,0,7.837-3.508,7.837-7.837v-5.905c0-4.329-3.508-7.837-7.837-7.837
	c-4.329,0-7.837,3.508-7.837,7.837v5.905C150.381,291.842,153.888,295.349,158.217,295.349z"/>
<path d="M222.629,279.578h-11.028c-6.556-40.089-41.075-70.767-82.566-70.767c-16.728,0.001-32.885,4.995-46.727,14.44
	c-3.576,2.44-4.495,7.316-2.055,10.891c2.44,3.575,7.315,4.496,10.89,2.055c11.227-7.662,24.33-11.712,37.893-11.713
	c37.511,0,68.029,30.924,68.029,68.934v56.102c0,38.01-30.518,68.934-68.029,68.934H78.002c-26.571,0-49.298-16.943-58.249-40.723
	h12.639c4.329,0,7.837-3.508,7.837-7.837c0-4.329-3.508-7.837-7.837-7.837H16.037c-0.236-2.225-0.364-4.482-0.364-6.769v-8.24
	h37.497c4.329,0,7.837-3.508,7.837-7.837v-45.795c0-14.938,4.658-29.161,13.472-41.13c2.566-3.486,1.821-8.392-1.663-10.957
	c-3.488-2.567-8.392-1.822-10.957,1.663c-10.811,14.683-16.524,32.118-16.524,50.425v37.956H13.179
	C5.912,331.374,0,337.288,0,344.559v10.729c0,43.471,34.992,78.839,78.002,78.839h9.081v27.682c0,4.329,3.508,7.837,7.837,7.837
	c4.329,0,7.837-3.508,7.837-7.837v-27.682h24.278v27.682c0,4.329,3.508,7.837,7.837,7.837c4.329,0,7.837-3.508,7.837-7.837v-28.83
	c39.671-6.618,70.03-41.514,70.03-83.46v-13.005h9.889c15.564,0,28.227-12.772,28.227-28.469
	C250.855,292.347,238.193,279.578,222.629,279.578z M222.629,320.841h-9.889v-4.959h7.603c4.329,0,7.837-3.508,7.837-7.837
	c0-4.329-3.508-7.837-7.837-7.837h-7.603v-4.957h9.889c6.921,0,12.553,5.74,12.553,12.794
	C235.181,315.1,229.549,320.841,222.629,320.841z"/>
</svg>